<?xml version="1.0" encoding="UTF-8" standalone="no"?>
<svg width="36px" height="40px" viewBox="0 0 36 40" version="1.1" xmlns="http://www.w3.org/2000/svg" xmlns:xlink="http://www.w3.org/1999/xlink">
    <!-- Generator: Sketch 3.7.2 (28276) - http://www.bohemiancoding.com/sketch -->
    <title>Slice 1</title>
    <desc>Created with Sketch.</desc>
    <defs></defs>
    <g id="Page-1" stroke="none" stroke-width="1" fill="none" fill-rule="evenodd">
        <g id="atom" fill="#95BAE4">
            <g id="Capa_1">
                <g id="Group">
                    <path d="M17.7948164,15 C15.1509287,15 13,17.1509287 13,19.7948164 C13,22.4387041 15.1509287,24.5896328 17.7948164,24.5896328 C20.4387041,24.5896328 22.5896328,22.4387041 22.5896328,19.7948164 C22.5896328,17.1509287 20.4386177,15 17.7948164,15 L17.7948164,15 Z M17.7948164,23.2937365 C15.865486,23.2937365 14.2958963,21.7241469 14.2958963,19.7948164 C14.2958963,17.865486 15.865486,16.2958963 17.7948164,16.2958963 C19.7241469,16.2958963 21.2937365,17.865486 21.2937365,19.7948164 C21.2937365,21.7241469 19.7241469,23.2937365 17.7948164,23.2937365 L17.7948164,23.2937365 Z" id="Shape"></path>
                    <path d="M17.6479482,18 C17.2900216,18 17,18.2900216 17,18.6479482 C17,19.0058747 17.2900216,19.2958963 17.6479482,19.2958963 C18.0528726,19.2958963 18.3822894,19.6253132 18.3822894,20.0302376 C18.3822894,20.3881641 18.672311,20.6781857 19.0302376,20.6781857 C19.3881641,20.6781857 19.6781857,20.3881641 19.6781857,20.0302376 C19.6781857,18.9107559 18.7674298,18 17.6479482,18 L17.6479482,18 Z" id="Shape"></path>
                    <path d="M31.4069114,20 C31.974946,19.4070842 32.4983153,18.8116631 32.9718359,18.2174514 C35.5968035,14.9236285 36.4047516,12.00527 35.2469978,10 C34.0893305,7.99481641 31.1580994,7.23516199 26.9929158,7.86159827 C26.2401728,7.97477322 25.4612527,8.13071274 24.6622894,8.32673866 C24.1887689,6.69416847 23.6138229,5.2336933 22.9500648,4.00976242 C23.2387905,3.65900648 23.4124406,3.21010799 23.4124406,2.72138229 C23.4124406,1.60190065 22.5016847,0.691144708 21.382203,0.691144708 C21.0495032,0.691144708 20.7355508,0.772095032 20.4581425,0.914557235 C19.6482073,0.307818575 18.7982721,0 17.9265659,0 C15.6110583,0 13.487689,2.15887689 11.9476458,6.07904968 C11.6698056,6.78617711 11.4158099,7.53727862 11.1863499,8.32561555 C10.3889417,8.13019438 9.61149028,7.97460043 8.86012959,7.86159827 C4.69520518,7.23542117 1.7638013,7.99473002 0.605961123,10 C-0.551706263,12.00527 0.256241901,14.9236285 2.8812095,18.2174514 C3.35568035,18.8127862 3.88025918,19.4094168 4.44950324,20.0034557 C3.74833693,20.7339093 3.11775378,21.4656587 2.56846652,22.1896328 C2.39688985,22.1423758 2.21658747,22.1166307 2.03023758,22.1166307 C0.91075594,22.1166307 0,23.0273866 0,24.1468683 C0,24.7039309 0.225658747,25.2092441 0.590237581,25.5764147 C-0.0768898488,27.2999568 -0.0730021598,28.8236717 0.606047516,30 C1.49917927,31.5468683 3.44717063,32.3523974 6.20328294,32.352311 C7.0199568,32.352311 7.90816415,32.2815551 8.86021598,32.1383153 C9.61149028,32.0253132 10.3889417,31.8698056 11.1864363,31.6742981 C11.4158963,32.462635 11.669892,33.2136501 11.9477322,33.9208639 C13.487689,37.8410367 15.6110583,40 17.9265659,40 C20.2420734,40 22.3654428,37.8410367 23.905486,33.9208639 C24.1837581,33.212527 24.4381857,32.4601296 24.667905,31.670324 C25.724406,31.9302808 26.7419438,32.1193952 27.7039309,32.2310151 C27.9207775,33.1187905 28.722419,33.779784 29.6760259,33.779784 C30.6468251,33.779784 31.460216,33.0946868 31.6592657,32.182635 C33.3631965,31.8716199 34.5997408,31.1211231 35.2469978,30.0000864 C36.4047516,27.9948164 35.5968035,25.0764579 32.9718359,21.782635 C32.4983153,21.1883369 31.974946,20.5928294 31.4069114,20 L31.4069114,20 Z M27.1855724,9.14315335 C30.7350324,8.60907127 33.2642765,9.15775378 34.1246652,10.6479482 C34.9849676,12.1380562 34.1953348,14.6026782 31.9583585,17.4098488 C31.5141253,17.967257 31.0233261,18.5263931 30.4907991,19.0836285 C29.1617279,17.8063931 27.6338661,16.5513607 25.9568898,15.3588769 C25.7602592,13.3104104 25.4352484,11.3600864 24.9967171,9.57848812 C25.7475594,9.39533477 26.4790497,9.24941685 27.1855724,9.14315335 L27.1855724,9.14315335 Z M21.4038877,26.0228942 C20.2485529,26.6899352 19.0854428,27.2993521 17.9293305,27.8469114 C16.7688121,27.2986609 15.602851,26.6888985 14.4492441,26.0228942 C13.2930454,25.3553348 12.1828078,24.6521814 11.1297624,23.9240605 C11.0257451,22.648121 10.9719222,21.3350324 10.9719222,20 C10.9719222,18.6661771 11.0256587,17.3542981 11.1295032,16.0794816 C12.1853132,15.3476458 13.2966739,14.6425054 14.4492441,13.9770194 C15.6054428,13.30946 16.7695032,12.6996112 17.9265659,12.1517063 C19.0836285,12.6995248 20.247689,13.30946 21.4038877,13.9770194 C22.5593952,14.6441469 23.6689417,15.3467819 24.7212959,16.0743844 C24.8262635,17.3512743 24.8812095,18.6655724 24.8812095,20 C24.8812095,21.3350324 24.8273866,22.648121 24.7233693,23.9240605 C23.670324,24.6521814 22.5600864,25.3553348 21.4038877,26.0228942 L21.4038877,26.0228942 Z M24.555162,25.6008639 C24.3659611,27.1786609 24.0964147,28.6840605 23.7517927,30.0847516 C22.3694168,29.682851 20.9290713,29.1631965 19.4669546,28.5388337 C20.329676,28.1060907 21.1931749,27.6408639 22.0517495,27.1452268 C22.9117927,26.6486393 23.7477322,26.132527 24.555162,25.6008639 L24.555162,25.6008639 Z M16.3930022,28.539784 C14.9298488,29.1658747 13.4892441,29.6858747 12.1020302,30.0882073 C11.7570626,28.6865659 11.4871706,27.1799568 11.2978834,25.6007775 C12.1053132,26.1324406 12.9412527,26.6486393 13.8012959,27.1451404 C14.6599568,27.6408639 15.5262203,28.1060907 16.3930022,28.539784 L16.3930022,28.539784 Z M9.76172786,22.9400432 C8.49036717,21.9876458 7.32190065,21.0019006 6.28146868,20.0035421 C7.32069114,19.0074298 8.49088553,18.0198704 9.76138229,17.0662635 C9.70488121,18.0292873 9.67602592,19.0091577 9.67602592,20 C9.67602592,20.9930022 9.7049676,21.9750324 9.76172786,22.9400432 L9.76172786,22.9400432 Z M11.2974514,14.402419 C11.4868251,12.8221166 11.7568035,11.3143844 12.1020302,9.91179266 C13.4883801,10.3138661 14.928121,10.8334341 16.390324,11.4590065 C15.5262203,11.8923542 14.6611663,12.3582721 13.8012095,12.8547732 C12.943067,13.3502376 12.1069546,13.8679914 11.2974514,14.402419 L11.2974514,14.402419 Z M19.4627214,11.4590065 C20.9241469,10.8337797 22.3631102,10.3143844 23.7487689,9.9124838 C24.0909719,11.3078186 24.3612959,12.8147732 24.5517063,14.3968898 C23.7453996,13.8660043 22.9105832,13.3506695 22.0518359,12.8548596 C21.1917927,12.3582721 20.3268251,11.8923542 19.4627214,11.4590065 L19.4627214,11.4590065 Z M26.0892441,17.0583153 C27.3629374,18.0122678 28.5333909,18.9998272 29.575378,20 C28.5339957,20.999568 27.3642333,21.9866091 26.0913175,22.9401296 C26.1480778,21.9751188 26.1771058,20.9930886 26.1771058,20.0000864 C26.1771058,19.0074298 26.147041,18.024622 26.0892441,17.0583153 L26.0892441,17.0583153 Z M22.1166307,2.72138229 C22.1166307,3.1263067 21.7872138,3.45572354 21.3822894,3.45572354 C20.977365,3.45572354 20.6479482,3.1263067 20.6479482,2.72138229 C20.6479482,2.31645788 20.977365,1.98704104 21.3822894,1.98704104 C21.7872138,1.98704104 22.1166307,2.31645788 22.1166307,2.72138229 L22.1166307,2.72138229 Z M13.1536933,6.55300216 C14.4662635,3.21200864 16.2058747,1.29589633 17.9265659,1.29589633 C18.4655724,1.29589633 19.0089849,1.48362851 19.5468683,1.85460043 C19.4221166,2.11766739 19.3520518,2.41140389 19.3520518,2.72138229 C19.3520518,3.84086393 20.2628078,4.75161987 21.3822894,4.75161987 C21.5425486,4.75161987 21.6983153,4.73235421 21.8480346,4.69710583 C22.4518359,5.82367171 22.9778834,7.16276458 23.414514,8.66099352 C21.6453564,9.17295896 19.7961987,9.86799136 17.9266523,10.7230238 C16.0567603,9.86781857 14.2074298,9.17278618 12.4380994,8.66082073 C12.6542549,7.92095032 12.8931317,7.21641469 13.1536933,6.55300216 L13.1536933,6.55300216 Z M1.72820734,10.6479482 C2.58850972,9.15775378 5.11784017,8.60933045 8.66738661,9.14315335 C9.37226782,9.24915767 10.1018575,9.39464363 10.8507127,9.57710583 C10.4091577,11.3667387 10.0862203,13.3174082 9.89192225,15.3660475 C8.22073434,16.5577538 6.69278618,17.8148596 5.3662203,19.0879482 C4.83213823,18.5292441 4.3399568,17.9687257 3.89460043,17.4098488 C1.6575378,14.6026782 0.867904968,12.1380562 1.72820734,10.6479482 L1.72820734,10.6479482 Z M2.03023758,23.412527 C2.43516199,23.412527 2.76457883,23.7419438 2.76457883,24.1468683 C2.76457883,24.5517927 2.43516199,24.8812095 2.03023758,24.8812095 C1.62531317,24.8812095 1.29589633,24.5517927 1.29589633,24.1468683 C1.29589633,23.7419438 1.62531317,23.412527 2.03023758,23.412527 L2.03023758,23.412527 Z M8.667473,30.8568467 C5.11818575,31.3904968 2.58868251,30.8422462 1.72829374,29.3520518 C1.16466523,28.3756371 1.39360691,27.1388337 1.75559395,26.158013 C1.84552916,26.1701944 1.93710583,26.1771058 2.03023758,26.1771058 C3.14971922,26.1771058 4.06047516,25.2663499 4.06047516,24.1468683 C4.06047516,23.6847516 3.9049676,23.2584881 3.64397408,22.9168898 C4.14894168,22.2558963 4.72570194,21.5875594 5.36544276,20.9193952 C6.69278618,22.1946436 8.21822894,23.447689 9.8924406,24.6384449 C10.0867387,26.6853564 10.4095032,28.6344708 10.8507991,30.4228078 C10.1019438,30.6053564 9.37226782,30.7508423 8.667473,30.8568467 L8.667473,30.8568467 Z M22.6992657,33.4469978 C21.3866955,36.787905 19.6471706,38.7041037 17.9265659,38.7041037 C16.2058747,38.7041037 14.4662635,36.787905 13.1537797,33.4469978 C12.8931317,32.7835853 12.6543413,32.0789633 12.438013,31.3391793 C14.2084665,30.8268683 16.0591793,30.1312311 17.9302808,29.2752484 C19.7990497,30.1277754 21.6510583,30.8225486 23.4165011,31.3346868 C23.1997408,32.0761123 22.960432,32.782203 22.6992657,33.4469978 L22.6992657,33.4469978 Z M29.6760259,32.4838013 C29.2711015,32.4838013 28.9416847,32.1543844 28.9416847,31.74946 C28.9416847,31.3445356 29.2711015,31.0151188 29.6760259,31.0151188 C30.0809503,31.0151188 30.4103672,31.3445356 30.4103672,31.74946 C30.4103672,32.1543844 30.0808639,32.4838013 29.6760259,32.4838013 L29.6760259,32.4838013 Z M34.1247516,29.3520518 C33.6772354,30.1271706 32.7993089,30.6432829 31.5150756,30.8907127 C31.1909287,30.1993952 30.4886393,29.7192225 29.6760259,29.7192225 C28.844406,29.7192225 28.1282937,30.2220302 27.8148596,30.9395248 C26.9238877,30.8345572 25.9817711,30.6594384 25.0030238,30.4200432 C25.4439741,28.6324838 25.7664795,26.684406 25.9606911,24.6385313 C27.6361987,23.4468251 29.162851,22.1926566 30.4908855,20.9164579 C31.0234125,21.4736933 31.5142117,22.0328294 31.9584449,22.5902376 C34.1954212,25.3973218 34.985054,27.8619438 34.1247516,29.3520518 L34.1247516,29.3520518 Z" id="Shape"></path>
                </g>
            </g>
        </g>
    </g>
</svg>