<svg xmlns="http://www.w3.org/2000/svg" width="40" height="40" viewBox="0 0 40 40" version="1.1"><g stroke="none" stroke-width="1" fill="none" fill-rule="evenodd"><g fill="#FFFFFF"><path d="M26.2 0C18.6 0 12.4 6.2 12.4 13.8 12.4 16.9 13.5 19.8 15.2 22.1L12.4 24.9C12.4 24.9 12.4 24.9 12.4 25 12.2 24.9 11.9 24.9 11.7 24.9 10.8 24.9 9.9 25.2 9.3 25.9L1 34.2C0.4 34.8 0 35.7 0 36.6 0 37.5 0.4 38.4 1 39 1.6 39.7 2.5 40 3.4 40 4.3 40 5.2 39.7 5.8 39L14.1 30.7C14.7 30.1 15.1 29.2 15.1 28.3 15.1 28.1 15.1 27.8 15 27.6 15 27.6 15.1 27.6 15.1 27.5L17.9 24.8C20.2 26.5 23 27.6 26.2 27.6 33.8 27.6 39.9 21.4 39.9 13.8 39.9 6.2 33.8 0 26.2 0L26.2 0ZM4.9 38.1C4.5 38.5 4 38.7 3.4 38.7 2.8 38.7 2.3 38.5 1.9 38.1 1.5 37.7 1.3 37.2 1.3 36.6 1.3 36 1.5 35.5 1.9 35.1L9.4 27.6 12.4 30.6 4.9 38.1 4.9 38.1ZM13.3 29.7L10.3 26.7C10.7 26.4 11.2 26.2 11.7 26.2 12.2 26.2 12.8 26.4 13.2 26.8 13.6 27.2 13.8 27.7 13.8 28.3 13.8 28.8 13.6 29.3 13.3 29.7L13.3 29.7ZM14.5 26.3C14.4 26.2 14.2 26 14.1 25.9 14 25.7 13.8 25.6 13.7 25.5L16.1 23.1C16.3 23.4 16.6 23.7 16.9 23.9L14.5 26.3 14.5 26.3ZM26.2 26.3C19.3 26.3 13.7 20.7 13.7 13.8 13.7 6.9 19.3 1.3 26.2 1.3 33 1.3 38.6 6.9 38.6 13.8 38.6 20.7 33 26.3 26.2 26.3L26.2 26.3ZM26.2 2.8C20.1 2.8 15.2 7.7 15.2 13.8 15.2 19.9 20.1 24.8 26.2 24.8 32.2 24.8 37.2 19.9 37.2 13.8 37.2 7.7 32.2 2.8 26.2 2.8L26.2 2.8ZM26.2 23.5C20.8 23.5 16.5 19.1 16.5 13.8 16.5 8.4 20.8 4.1 26.2 4.1 31.5 4.1 35.9 8.4 35.9 13.8 35.9 19.1 31.5 23.5 26.2 23.5L26.2 23.5ZM30.7 6.9C30.4 6.7 30 6.8 29.8 7.1 29.6 7.4 29.7 7.8 30 8 31.9 9.2 33.1 11.4 33.1 13.8 33.1 15.4 32.5 17 31.5 18.2 31.3 18.5 31.3 18.9 31.6 19.1 31.7 19.2 31.9 19.3 32 19.3 32.2 19.3 32.4 19.2 32.5 19 33.7 17.6 34.4 15.7 34.4 13.8 34.4 11 33 8.4 30.7 6.9L30.7 6.9ZM27.7 5.7C27.2 5.6 26.7 5.5 26.2 5.5 25.8 5.5 25.5 5.8 25.5 6.2 25.5 6.5 25.8 6.8 26.2 6.8 26.6 6.8 27 6.9 27.4 6.9 27.5 7 27.5 7 27.5 7 27.9 7 28.1 6.7 28.2 6.4 28.2 6.1 28 5.7 27.7 5.7L27.7 5.7Z"/></g></g></svg>