<svg xmlns="http://www.w3.org/2000/svg" width="40" height="40" viewBox="0 0 40 40" version="1.1"><title>Slice 1</title><desc>Created with Sketch.</desc><g stroke="none" stroke-width="1" fill="none" fill-rule="evenodd"><g fill="#95BAE4"><path d="M26.2 1.7C25.9 1.3 25.9 0.9 26.2 0.6 26.5 0.2 27 0.2 27.3 0.6L27.9 1.2 28.5 0.6C28.8 0.2 29.3 0.2 29.6 0.6 29.9 0.9 29.9 1.3 29.6 1.7L29 2.3 29.6 2.9C29.9 3.2 29.9 3.7 29.6 4 29.5 4.1 29.3 4.2 29.1 4.2 28.9 4.2 28.7 4.1 28.5 4L27.9 3.4 27.3 4C27 4.3 26.5 4.3 26.2 4 25.9 3.7 25.9 3.2 26.2 2.9L26.8 2.3 26.2 1.7 26.2 1.7ZM29.5 7.2C29.3 7.5 29.4 8 29.8 8.3L29.9 8.4C30 8.5 30.2 8.5 30.3 8.5 30.6 8.5 30.8 8.4 31 8.2 31.2 7.8 31.1 7.3 30.8 7.1L30.6 7C30.3 6.7 29.8 6.8 29.5 7.2L29.5 7.2ZM13.7 32.6L13.5 32.6C13.1 32.6 12.7 33 12.7 33.4 12.7 33.8 13.1 34.2 13.5 34.2L13.7 34.2C14.1 34.2 14.5 33.8 14.5 33.4 14.5 33 14.1 32.6 13.7 32.6L13.7 32.6ZM35.6 6.2L36.2 6.8 35.6 7.4C35.3 7.7 35.3 8.2 35.6 8.5 35.7 8.6 35.9 8.7 36.1 8.7 36.3 8.7 36.5 8.6 36.7 8.5L37.3 7.9 37.9 8.5C38.2 8.8 38.7 8.8 39 8.5 39.3 8.2 39.3 7.7 39 7.4L38.4 6.8 39 6.2C39.3 5.8 39.3 5.4 39 5.1 38.7 4.7 38.2 4.7 37.9 5.1L37.3 5.7 36.7 5.1C36.4 4.7 35.9 4.7 35.6 5.1 35.3 5.4 35.3 5.8 35.6 6.2L35.6 6.2ZM33.8 14.6C33.9 14.6 34 14.6 34.1 14.6 34.4 14.6 34.7 14.5 34.8 14.2L35.8 12C36 11.6 35.8 11.1 35.4 10.9 35 10.8 34.6 10.9 34.4 11.3L33.4 13.5C33.2 13.9 33.4 14.4 33.8 14.6L33.8 14.6ZM34.6 1.7C34.8 1.7 34.9 1.6 35 1.5L35.2 1.4C35.6 1.2 35.6 0.7 35.4 0.4 35.2 0 34.7-0.1 34.3 0.2L34.2 0.3C33.8 0.5 33.7 1 34 1.3 34.1 1.6 34.4 1.7 34.6 1.7L34.6 1.7ZM34.7 22.1C34.9 22.5 34.8 22.9 34.4 23.1L21.2 29.9C20.8 30.1 20.4 29.9 20.2 29.5 20 29.1 20.1 28.7 20.5 28.5L33 22 29.2 13.6 5.1 23.2C3.7 23.7 2.7 24.8 2.1 26.2 1.7 27.2 1.6 28.3 1.7 29.3 1.7 29.3 1.7 29.3 1.7 29.3 2.4 30.3 3.6 31 5.2 31 5.6 31 6 31.4 6 31.8 5.9 32.2 5.6 32.5 5.2 32.5 4.3 32.5 3.6 32.4 2.9 32.1 3.6 33 4.5 33.7 5.6 34.1 6 34.3 6.2 34.7 6.1 35.1 6 35.4 5.7 35.6 5.3 35.6 5.2 35.6 5.2 35.6 5.1 35.6 3.2 34.9 1.6 33.4 0.8 31.6 -0.1 29.7-0.1 27.5 0.6 25.6 1.4 23.8 2.7 22.4 4.5 21.7L6.4 21 5.5 19C5.4 18.8 5.4 18.6 5.5 18.4 5.5 18.2 5.7 18.1 5.9 18L7.3 17.3C6.8 16.4 5.9 15.8 4.9 15.5 4.5 15.4 4.2 15 4.3 14.6 4.4 14.2 4.9 13.9 5.3 14 6.8 14.4 8 15.4 8.7 16.7L10.2 16C10.6 15.9 11 16 11.2 16.4L12.2 18.7 29.3 11.9C29.7 11.8 30.1 11.9 30.3 12.3L34.7 22.1 34.7 22.1ZM10.8 19.2L10.1 17.8 7.2 19.1 7.8 20.4 10.8 19.2 10.8 19.2ZM39 21.6L38.9 21.5C38.5 21.3 38 21.4 37.8 21.7 37.5 22.1 37.6 22.6 38 22.8L38.1 22.9C38.3 23 38.4 23 38.6 23 38.8 23 39.1 22.9 39.2 22.7 39.5 22.3 39.4 21.9 39 21.6L39 21.6ZM19.8 33.4C19.8 36.8 17 39.5 13.6 39.5 10.2 39.5 7.4 36.8 7.4 33.4 7.4 30 10.2 27.2 13.6 27.2 17 27.2 19.8 30 19.8 33.4L19.8 33.4ZM18.2 33.4C18.2 30.8 16.1 28.8 13.6 28.8 11.1 28.8 9 30.8 9 33.4 9 35.9 11.1 38 13.6 38 16.1 38 18.2 35.9 18.2 33.4L18.2 33.4ZM39.9 12.9C39.7 12.6 39.2 12.4 38.8 12.7L36.6 14C36.2 14.2 36.1 14.6 36.3 15 36.4 15.3 36.7 15.4 36.9 15.4 37.1 15.4 37.2 15.4 37.3 15.3L39.6 14C40 13.8 40.1 13.3 39.9 12.9L39.9 12.9ZM19.1 27.4C19.3 27.4 19.4 27.4 19.5 27.3L30.2 21.8C30.6 21.6 30.7 21.1 30.5 20.8 30.3 20.4 29.9 20.2 29.5 20.4L18.8 25.9C18.4 26.1 18.3 26.6 18.4 27 18.6 27.2 18.9 27.4 19.1 27.4L19.1 27.4ZM38.4 18.7C38.8 18.7 39.1 18.4 39.2 18 39.3 17.6 39 17.2 38.6 17.1L35.9 16.6C35.5 16.6 35.1 16.8 35 17.3 34.9 17.7 35.2 18.1 35.6 18.2L38.3 18.7C38.3 18.7 38.4 18.7 38.4 18.7L38.4 18.7Z"/></g></g></svg>