<?xml version="1.0" encoding="UTF-8" standalone="no"?>
<svg width="40px" height="32px" viewBox="0 0 40 32" version="1.1" xmlns="http://www.w3.org/2000/svg" xmlns:xlink="http://www.w3.org/1999/xlink">
    <!-- Generator: Sketch 3.7.2 (28276) - http://www.bohemiancoding.com/sketch -->
    <title>Slice 1</title>
    <desc>Created with Sketch.</desc>
    <defs></defs>
    <g id="Page-1" stroke="none" stroke-width="1" fill="none" fill-rule="evenodd">
        <g id="gears" fill="#95BAE4">
            <g id="Capa_1">
                <g id="Group">
                    <path d="M23.3000866,19.4582684 C23.8438095,18.5463203 24.2485714,17.572381 24.5080519,16.5519481 L25.5844156,16.5519481 C26.7063203,16.5519481 27.6190476,15.6392208 27.6190476,14.517316 L27.6190476,13.1320346 C27.6190476,12.0101299 26.7063203,11.0974026 25.5844156,11.0974026 L24.5080519,11.0974026 C24.2485714,10.0769697 23.8438095,9.1030303 23.3000866,8.19108225 L24.0641558,7.42701299 C24.8574026,6.63376623 24.8574026,5.34294372 24.0640693,4.54961039 L23.0845887,3.57012987 C22.7003463,3.18588745 22.1893506,2.97419913 21.6458874,2.97419913 C21.1024242,2.97419913 20.5914286,3.18588745 20.2071861,3.57012987 L19.4432035,4.33419913 C18.5312554,3.79047619 17.557316,3.38562771 16.5368831,3.12623377 L16.5368831,2.04978355 C16.5368831,0.927878788 15.6241558,0.0151515152 14.5022511,0.0151515152 L13.1169697,0.0151515152 C11.9950649,0.0151515152 11.0823377,0.927878788 11.0823377,2.04978355 L11.0823377,3.12614719 C10.0619048,3.38562771 9.08796537,3.79038961 8.1761039,4.33411255 L7.41203463,3.57004329 C7.02779221,3.18580087 6.51679654,2.97411255 5.97333333,2.97411255 C5.42987013,2.97411255 4.91887446,3.18580087 4.53463203,3.57004329 L3.55497835,4.54961039 C2.7617316,5.34294372 2.7617316,6.63376623 3.55497835,7.42701299 L4.31904762,8.19108225 C3.77532468,9.1030303 3.37056277,10.0769697 3.11108225,11.0974026 L2.03463203,11.0974026 C0.912727273,11.0974026 0,12.0101299 0,13.1320346 L0,14.517316 C0,15.6392208 0.912727273,16.5519481 2.03463203,16.5519481 L3.11108225,16.5519481 C3.37056277,17.572381 3.77532468,18.5463203 4.31904762,19.4582684 L3.55497835,20.2223377 C2.7617316,21.015671 2.7617316,22.3064069 3.55497835,23.0997403 L4.53445887,24.0793074 C5.32787879,24.8726407 6.61852814,24.8725541 7.41194805,24.0793074 L8.17593074,23.3153247 C9.08779221,23.8590476 10.0617316,24.2638095 11.0821645,24.52329 L11.0821645,25.5996537 C11.0821645,26.7215584 11.9948918,27.6342857 13.1167965,27.6342857 L14.5020779,27.6342857 C15.6239827,27.6342857 16.53671,26.7215584 16.53671,25.5996537 L16.53671,24.52329 C17.5571429,24.2638095 18.5310823,23.8590476 19.4430303,23.3153247 L20.207013,24.0793939 C21.0003463,24.8727273 22.2911688,24.8728139 23.084329,24.0793939 L24.0639827,23.0998268 C24.8572294,22.3064935 24.8572294,21.0157576 24.0639827,20.2224242 L23.3000866,19.4582684 L23.3000866,19.4582684 Z M23.1458874,22.1813853 L22.1662338,23.1609524 C21.8793939,23.4477922 21.412381,23.4477922 21.1255411,23.1609524 L19.9953247,22.0307359 C19.7768831,21.8124675 19.4350649,21.7780087 19.1776623,21.9484848 C18.127619,22.6438095 16.9772294,23.1218182 15.7582684,23.3692641 C15.455671,23.4306494 15.2380952,23.6967965 15.2380952,24.0056277 L15.2380952,25.5995671 C15.2380952,26.005368 14.9079654,26.3354978 14.5021645,26.3354978 L13.1168831,26.3354978 C12.7110823,26.3354978 12.3809524,26.005368 12.3809524,25.5995671 L12.3809524,24.0056277 C12.3809524,23.6967965 12.1633766,23.4306494 11.8607792,23.3692641 C10.6418182,23.1218182 9.49142857,22.6438095 8.44147186,21.9484848 C8.33194805,21.8759307 8.20727273,21.8405195 8.08320346,21.8405195 C7.91549784,21.8405195 7.74926407,21.9052814 7.62372294,22.0307359 L6.49359307,23.1608658 C6.20649351,23.4477922 5.7395671,23.4477922 5.45281385,23.1608658 L4.47333333,22.1812987 C4.18640693,21.8943723 4.18640693,21.4274459 4.47333333,21.1405195 L5.60354978,20.010303 C5.82181818,19.7919481 5.85627706,19.4500433 5.68571429,19.1926407 C4.99047619,18.142684 4.51238095,16.9922078 4.26493506,15.7733333 C4.20354978,15.4706494 3.93748918,15.2531602 3.62857143,15.2531602 L2.03463203,15.2531602 C1.62883117,15.2531602 1.2987013,14.9230303 1.2987013,14.5172294 L1.2987013,13.1319481 C1.2987013,12.7261472 1.62883117,12.3960173 2.03463203,12.3960173 L3.62857143,12.3960173 C3.9374026,12.3960173 4.20354978,12.1785281 4.26493506,11.8758442 C4.51238095,10.6568831 4.99047619,9.50649351 5.68571429,8.45645022 C5.85627706,8.19904762 5.82181818,7.85714286 5.60354978,7.63878788 L4.47333333,6.50857143 C4.18640693,6.22164502 4.18640693,5.75471861 4.47333333,5.46779221 L5.45281385,4.48831169 C5.59177489,4.34935065 5.7765368,4.27272727 5.97316017,4.27272727 C6.16978355,4.27272727 6.35454545,4.34926407 6.49359307,4.48831169 L7.62380952,5.61852814 C7.8421645,5.83679654 8.18424242,5.87134199 8.44147186,5.70077922 C9.49142857,5.00554113 10.6418182,4.52753247 11.8607792,4.28 C12.1633766,4.21861472 12.3809524,3.95246753 12.3809524,3.64363636 L12.3809524,2.04969697 C12.3809524,1.6438961 12.7110823,1.31376623 13.1168831,1.31376623 L14.5021645,1.31376623 C14.9079654,1.31376623 15.2380952,1.6438961 15.2380952,2.04969697 L15.2380952,3.64363636 C15.2380952,3.95246753 15.455671,4.21861472 15.7582684,4.28 C16.9772294,4.52744589 18.127619,5.00545455 19.1776623,5.70077922 C19.4351515,5.87125541 19.7770563,5.83679654 19.9953247,5.61852814 L21.1255411,4.48839827 C21.2645022,4.34943723 21.4492641,4.27281385 21.6458874,4.27281385 C21.8425108,4.27281385 22.0271861,4.34935065 22.1663203,4.48839827 L23.1458009,5.46787879 C23.4327273,5.75480519 23.4327273,6.2217316 23.1458009,6.50865801 L22.0155844,7.63887446 C21.797316,7.85722944 21.7628571,8.1991342 21.9334199,8.4565368 C22.628658,9.50658009 23.1067532,10.6570563 23.3541126,11.8759307 C23.4155844,12.1786147 23.681645,12.3961039 23.9905628,12.3961039 L25.5844156,12.3961039 C25.9902165,12.3961039 26.3203463,12.7262338 26.3203463,13.1320346 L26.3203463,14.517316 C26.3203463,14.9231169 25.9902165,15.2532468 25.5844156,15.2532468 L23.9905628,15.2532468 C23.6817316,15.2532468 23.4155844,15.4707359 23.3541126,15.7734199 C23.1067532,16.992381 22.628658,18.1427706 21.9334199,19.1927273 C21.7628571,19.4502165 21.797316,19.7920346 22.0155844,20.0103896 L23.1458009,21.1406061 C23.4327273,21.4275325 23.4327273,21.8944589 23.1458874,22.1813853 L23.1458874,22.1813853 Z" id="Shape"></path>
                    <path d="M15.707619,7.11636364 C16.1449351,7.23982684 16.5721212,7.40753247 16.9774892,7.61471861 C17.0721212,7.66311688 17.1730736,7.68606061 17.2725541,7.68606061 C17.508658,7.68606061 17.7363636,7.55679654 17.8512554,7.33220779 C18.0145455,7.01290043 17.8880519,6.62164502 17.568658,6.45844156 C17.0872727,6.21238095 16.5799134,6.01316017 16.0605195,5.86658009 C15.7153247,5.76917749 15.35671,5.96987013 15.2591342,6.31506494 C15.161645,6.66008658 15.3625108,7.01887446 15.707619,7.11636364 L15.707619,7.11636364 Z" id="Shape"></path>
                    <path d="M6.19878788,13.0782684 C6.23844156,13.0855411 6.2778355,13.0890909 6.31679654,13.0890909 C6.62406926,13.0890909 6.89722944,12.8699567 6.95471861,12.5569697 C7.05852814,11.9916883 7.23290043,11.4402597 7.47281385,10.9178355 C7.6225974,10.5919481 7.47982684,10.2064069 7.15393939,10.05671 C6.82813853,9.90701299 6.44242424,10.0497835 6.29281385,10.3755844 C6.00770563,10.9960173 5.80060606,11.6509957 5.67731602,12.3223377 C5.61255411,12.6750649 5.84597403,13.0135065 6.19878788,13.0782684 L6.19878788,13.0782684 Z" id="Shape"></path>
                    <path d="M12.5411255,20.6793074 C9.7182684,20.1606061 7.47333333,17.9154978 6.95489177,15.0926407 C6.89004329,14.7399134 6.55108225,14.5064069 6.19896104,14.571342 C5.84623377,14.6361039 5.61272727,14.9745455 5.67757576,15.3272727 C6.29281385,18.6769697 8.95679654,21.3411255 12.3064935,21.9566234 C12.3461472,21.9638961 12.3856277,21.9674459 12.4245887,21.9674459 C12.7318615,21.9674459 13.0049351,21.7483983 13.0625108,21.4353247 C13.1271861,21.0825974 12.8938528,20.7441558 12.5411255,20.6793074 L12.5411255,20.6793074 Z" id="Shape"></path>
                    <path d="M19.8213853,8.14796537 C19.5749784,7.88718615 19.1639827,7.87549784 18.9033766,8.12181818 C18.642684,8.36805195 18.6309957,8.77904762 18.8772294,9.03974026 C20.1037229,10.3382684 20.7792208,12.0375758 20.7792208,13.8246753 C20.7792208,14.4707359 20.6909091,15.1104762 20.5169697,15.7260606 C20.4193939,16.0711688 20.62,16.4300433 20.9651948,16.527619 C21.0242424,16.544329 21.0836364,16.5522944 21.1421645,16.5522944 C21.425368,16.5522944 21.6858009,16.3654545 21.7666667,16.0794805 C21.9732468,15.3489177 22.0780087,14.590303 22.0780087,13.8247619 C22.0779221,11.7045887 21.2765368,9.68857143 19.8213853,8.14796537 L19.8213853,8.14796537 Z" id="Shape"></path>
                    <path d="M38.9267532,24.1838095 L38.5880519,23.9883117 C38.66329,23.6009524 38.7012987,23.2127273 38.7012987,22.8290043 C38.7012987,22.4452814 38.6633766,22.0569697 38.5880519,21.669697 L38.9267532,21.4741991 C39.898355,20.9132468 40.232381,19.6664069 39.6715152,18.6948052 C39.1104762,17.7232035 37.8637229,17.3890043 36.8921212,17.9501299 L36.554632,18.1449351 C35.9651082,17.63671 35.2833766,17.2440693 34.5454545,16.9878788 L34.5454545,16.5952381 C34.5454545,15.4733333 33.6327273,14.5606061 32.5108225,14.5606061 C31.3889177,14.5606061 30.4761905,15.4733333 30.4761905,16.5952381 L30.4761905,16.9878788 C29.7382684,17.2440693 29.0565368,17.63671 28.467013,18.1449351 L28.1296104,17.9501299 C27.658961,17.678355 27.1106494,17.6061472 26.5857143,17.7468398 C26.0607792,17.8875325 25.6219048,18.2241558 25.3502165,18.6948052 C24.7892641,19.6664069 25.1233766,20.9131602 26.0949784,21.4741991 L26.4335931,21.669697 C26.358355,22.0572294 26.3203463,22.445368 26.3203463,22.8290043 C26.3203463,23.2126407 26.3582684,23.6008658 26.4335931,23.9883117 L26.0949784,24.1838095 C25.1233766,24.7447619 24.7893506,25.9915152 25.3502165,26.9632035 C25.9111688,27.9348918 27.1580087,28.2687446 28.1296104,27.7079654 L28.467013,27.5131602 C29.0565368,28.0213853 29.7382684,28.4139394 30.4761905,28.6702165 L30.4761905,29.0628571 C30.4761905,30.1847619 31.3889177,31.0974892 32.5108225,31.0974892 C33.6327273,31.0974892 34.5454545,30.1847619 34.5454545,29.0628571 L34.5454545,28.6702165 C35.2833766,28.414026 35.9651082,28.0213853 36.554632,27.5131602 L36.8921212,27.7079654 C37.8635498,28.2688312 39.1104762,27.9348052 39.6715152,26.9632035 C40.2324675,25.9915152 39.898355,24.7447619 38.9267532,24.1838095 L38.9267532,24.1838095 Z M38.5468398,26.3137662 C38.3438095,26.6651948 37.8928139,26.7858874 37.5415584,26.5832035 L36.7873593,26.1477922 C36.5309957,25.9997403 36.2068398,26.0439827 35.9993939,26.2551515 C35.3794805,26.8863203 34.5961039,27.3374026 33.7339394,27.5597403 C33.4470996,27.6336797 33.2467532,27.8922944 33.2467532,28.1884848 L33.2467532,29.0627706 C33.2467532,29.4685714 32.9166234,29.7987013 32.5108225,29.7987013 C32.1050216,29.7987013 31.7748918,29.4685714 31.7748918,29.0627706 L31.7748918,28.1884848 C31.7748918,27.8922944 31.5745455,27.6336797 31.2877056,27.5597403 C30.4255411,27.3374026 29.6421645,26.8863203 29.0222511,26.2551515 C28.8967965,26.1274459 28.7287446,26.0607792 28.5587013,26.0607792 C28.447619,26.0607792 28.335671,26.0892641 28.2342857,26.1477922 L27.4801732,26.5832035 C27.1287446,26.7862338 26.6776623,26.6651082 26.4748918,26.3138528 C26.2720346,25.9623377 26.3929004,25.511342 26.7442424,25.3084848 L27.5004329,24.8718615 C27.75671,24.7238961 27.8806061,24.4213853 27.8015584,24.1361905 C27.6805195,23.6987879 27.6190476,23.258961 27.6190476,22.8289177 C27.6190476,22.3988745 27.6805195,21.9591342 27.8015584,21.521645 C27.8806061,21.2364502 27.75671,20.9339394 27.5004329,20.785974 L26.7442424,20.3493506 C26.3928139,20.1464069 26.2720346,19.6954113 26.4748918,19.3439827 C26.5732468,19.1737662 26.7318615,19.0519481 26.9217316,19.0011255 C27.1115152,18.9502165 27.3098701,18.9762771 27.4801732,19.074632 L28.2342857,19.5100433 C28.4908225,19.6581818 28.8148052,19.6138528 29.0222511,19.402684 C29.6421645,18.7715152 30.4255411,18.3204329 31.2877056,18.0980952 C31.5745455,18.0241558 31.7748918,17.7655411 31.7748918,17.4693506 L31.7748918,16.5950649 C31.7748918,16.1892641 32.1050216,15.8591342 32.5108225,15.8591342 C32.9166234,15.8591342 33.2467532,16.1892641 33.2467532,16.5950649 L33.2467532,17.4693506 C33.2467532,17.7655411 33.4470996,18.0241558 33.7339394,18.0980952 C34.5961039,18.3204329 35.3794805,18.7715152 35.9993939,19.402684 C36.2068398,19.6138528 36.5309091,19.6581818 36.7873593,19.5100433 L37.5415584,19.074632 C37.8929004,18.8717749 38.3438961,18.9925541 38.5468398,19.3439827 C38.749697,19.6954113 38.6288312,20.1464069 38.2774892,20.3492641 L37.5212121,20.7858874 C37.2649351,20.9338528 37.141039,21.2364502 37.2200866,21.521645 C37.3412121,21.9587013 37.4025974,22.3985281 37.4025974,22.8288312 C37.4025974,23.2591342 37.3412121,23.6988745 37.2200866,24.1360173 C37.141039,24.4212121 37.2649351,24.7238095 37.5212121,24.8717749 L38.2774892,25.3083983 C38.6288312,25.5114286 38.749697,25.9624242 38.5468398,26.3137662 L38.5468398,26.3137662 Z" id="Shape"></path>
                    <path d="M32.5108225,20.1017316 C31.007013,20.1017316 29.7835498,21.3251948 29.7835498,22.8290043 C29.7835498,24.3328139 31.007013,25.5562771 32.5108225,25.5562771 C34.014632,25.5562771 35.2380952,24.3328139 35.2380952,22.8290043 C35.2380952,21.3251948 34.014632,20.1017316 32.5108225,20.1017316 L32.5108225,20.1017316 Z M32.5108225,24.2575758 C31.7231169,24.2575758 31.0822511,23.61671 31.0822511,22.8290043 C31.0822511,22.0412987 31.7231169,21.4004329 32.5108225,21.4004329 C33.2985281,21.4004329 33.9393939,22.0412987 33.9393939,22.8290043 C33.9393939,23.61671 33.2985281,24.2575758 32.5108225,24.2575758 L32.5108225,24.2575758 Z" id="Shape"></path>
                    <path d="M13.8095238,8.32683983 C10.7780087,8.32683983 8.31168831,10.7931602 8.31168831,13.8246753 C8.31168831,16.8561905 10.7780087,19.3225108 13.8095238,19.3225108 C16.841039,19.3225108 19.3073593,16.8561905 19.3073593,13.8246753 C19.3073593,10.7931602 16.841039,8.32683983 13.8095238,8.32683983 L13.8095238,8.32683983 Z M13.8095238,18.0238095 C11.4941126,18.0238095 9.61038961,16.1400866 9.61038961,13.8246753 C9.61038961,11.5092641 11.4941126,9.62554113 13.8095238,9.62554113 C16.1249351,9.62554113 18.008658,11.5092641 18.008658,13.8246753 C18.008658,16.1400866 16.1249351,18.0238095 13.8095238,18.0238095 L13.8095238,18.0238095 Z" id="Shape"></path>
                </g>
            </g>
        </g>
    </g>
</svg>